HIERARCHY
ROOT pelvis
{
  OFFSET 0 100 0
  CHANNELS 6 Xposition Yposition Zposition Zrotation Xrotation Yrotation
  JOINT pelvis_right_femur
  {
    OFFSET -10.78128 -3.44521 -0.5502486
    CHANNELS 3 Zrotation Xrotation Yrotation
    JOINT right_femur_tibia
    {
      OFFSET -0.8047443 -44.0398 -0.1307829
      CHANNELS 3 Zrotation Xrotation Yrotation
      JOINT right_tibia_foot
      {
        OFFSET 3.006224 -47.83518 -5
        CHANNELS 3 Zrotation Xrotation Yrotation
        End Site
        {
          OFFSET 0 -5 15
        }
      }
    }
  }
  JOINT pelvis_left_femur
  {
    OFFSET 10.78128 -3.44521 -0.5502486
    CHANNELS 3 Zrotation Xrotation Yrotation
    JOINT left_femur_tibia
    {
      OFFSET 0.8047443 -44.0398 -0.1307829
      CHANNELS 3 Zrotation Xrotation Yrotation
      JOINT left_tibia_foot
      {
        OFFSET -4.370144 -48.10324 -4.275266
        CHANNELS 3 Zrotation Xrotation Yrotation
        End Site
        {
          OFFSET 0 -5 15
        }
      }
    }
  }
  JOINT pelvis_spine1
  {
    OFFSET 0 6.468898 -3.129235
    CHANNELS 3 Zrotation Xrotation Yrotation
    JOINT spine1
    {
      OFFSET 0 23.15396 4.99043
      CHANNELS 3 Zrotation Xrotation Yrotation
      JOINT spine2
      {
        OFFSET 0 20.79997 -5.064912
        CHANNELS 3 Zrotation Xrotation Yrotation
        JOINT neck
        {
          OFFSET 0 14.38658 9.616178
          CHANNELS 3 Zrotation Xrotation Yrotation
          End Site
          {
            OFFSET 0 20 0
          }
        }
      }
      JOINT right_manubrium
      {
        OFFSET -5.722621 16.35077 3.967754
        CHANNELS 3 Zrotation Xrotation Yrotation
        JOINT right_clavicle
        {
          OFFSET -13.16364 1.694482 -4.693211
          CHANNELS 3 Zrotation Xrotation Yrotation
          JOINT right_humerus
          {
            OFFSET -28.5034 -0.3100689 -2.792744
            CHANNELS 3 Zrotation Xrotation Yrotation
            JOINT right_radius
            {
              OFFSET -25.15693 0.02248979 -1.271978
              CHANNELS 3 Zrotation Xrotation Yrotation
              End Site
              {
                OFFSET -15 0 0
              }
            }
          }
        }
      }
      JOINT left_manubrium
      {
        OFFSET 5.722621 16.35077 3.967754
        CHANNELS 3 Zrotation Xrotation Yrotation
        JOINT left_clavicle
        {
          OFFSET 13.16364 1.694482 -4.693211
          CHANNELS 3 Zrotation Xrotation Yrotation
          JOINT left_humerus
          {
            OFFSET 29.39168 -1.063119 -2.237045
            CHANNELS 3 Zrotation Xrotation Yrotation
            JOINT left_radius
            {
              OFFSET 24.59957 -0.9528479 0.9047498
              CHANNELS 3 Zrotation Xrotation Yrotation
              End Site
              {
                OFFSET 15 -0 -0
              }
            }
          }
        }
      }
    }
  }
}
MOTION
Frames: 15
Frame Time: 0.0416666666667
0 103.5113 0 1.780061 -1.689081 0.02982121 2.812628 -13.18509 7.542625 -0 36.68903 -0 -6.593483 -16.66463 -4.419024 -6.88364 13.24306 -25.51126 -0 5.030629 -0 0.1391687 -20.83841 24.53735 -4.212753 -3.625747 3.622321 1.689912 7.682801 -7.759156 0.4563005 23.70243 8.09747 4.792014 -21.76554 7.843603 7.561531 -18.48848 11.279 86.62874 39.1684 -22.35995 -0 0 15.01498 -7.593885 8.645228 4.05212 4.825106 -19.32696 -3.321747 -100.7123 42.10528 28.04162 0 0 -20.96431 -11.93195 18.06248 27.37512
0.07731193 103.4557 1.21238 1.469608 -1.546279 0.03363417 3.042651 -14.51406 7.347179 -0 36.4853 -0 -6.563335 -15.65221 -4.369791 -6.666425 13.24167 -24.7991 -0 5.21165 -0 -0.09486719 -20.94389 23.71472 -3.991742 -3.349731 3.48535 1.83956 7.793309 -7.89454 0.4540289 23.4749 8.087146 4.682519 -22.13508 7.90666 7.332063 -18.52745 11.31177 86.66101 38.45351 -22.25724 -0 0 14.97979 -7.940226 8.648772 4.41223 4.812124 -19.43348 -3.321672 -99.93129 41.28404 27.455 0 0 -20.98321 -11.15516 17.66137 26.66262
0.1764689 103.2421 3.004724 0.4091541 -0.625949 0.06624637 4.006713 -19.87877 6.440658 -0 33.00037 -0 -6.487344 -12.90533 -4.044099 -5.810175 13.49695 -23.01012 -0 6.047931 -0 -1.923304 -21.7919 20.79696 -3.065252 -2.263771 3.081011 2.132377 7.650183 -8.178088 0.5409229 22.78094 8.263585 4.708247 -22.96184 8.159175 6.829308 -18.2311 11.18107 86.62299 37.20568 -22.09772 -0 0 14.97909 -8.855703 9.0421 5.133732 5.169303 -19.70631 -3.28214 -98.27062 39.68663 25.94365 0 0 -21.43811 -9.71729 16.69332 25.59248
0.2871715 102.8366 5.406858 -0.3217712 0.003903616 0.2078364 4.496812 -24.23809 5.547099 -0 29.58217 -0 -6.341933 -9.958154 -3.888398 -5.20491 13.77437 -20.91283 -0 7.041057 -0 -3.193155 -22.38262 18.24244 -2.445368 -1.39523 2.759554 2.4172 7.727769 -8.497251 0.5903859 22.1384 8.364739 4.642189 -23.62603 8.316261 6.280861 -17.96393 11.13864 86.89953 35.89025 -22.20688 -0 0 14.53094 -10.15412 9.527512 6.031441 5.418786 -20.19951 -3.341516 -96.00817 37.69577 23.80625 0 0 -22.27609 -7.987582 15.54861 24.02296
0.403347 102.174 8.602418 -0.8387007 0.4076274 0.4794067 4.542121 -28.43647 4.34325 -0 25.21161 -0 -6.05752 -6.271615 -3.931467 -4.734425 14.2284 -18.00315 -0 8.342802 -0 -4.18277 -22.90283 15.53532 -2.015726 -0.5637339 2.460646 2.738493 8.023811 -8.904597 0.6290677 21.44157 8.38244 4.441399 -24.17745 8.399191 5.497818 -17.63555 11.14802 87.58938 34.10069 -22.61515 -0 0 13.46353 -12.14534 10.15668 7.28119 5.637981 -21.04072 -3.528535 -92.72699 34.78231 20.54261 0 0 -23.7856 -5.622134 13.9187 21.59392
0.5066945 101.1976 12.70455 -0.9555525 0.4879616 0.8851102 4.025655 -31.61425 2.898242 -0 19.81581 -0 -5.593022 -2.559732 -4.277879 -4.524657 14.94878 -14.69652 -0 9.900111 -0 -4.774912 -23.31389 13.17736 -1.889848 0.05368362 2.270876 3.006838 8.429806 -9.293039 0.6926975 20.83967 8.271155 4.12035 -24.37263 8.387373 4.546541 -17.19023 11.15534 88.65428 32.0977 -23.32689 -0 0 11.77767 -14.53393 10.84387 8.611392 5.843683 -22.12489 -3.815171 -89.03169 31.29411 16.54178 0 0 -25.91406 -3.054288 12.00836 18.66832
0.5790726 99.88653 17.79735 -0.5772063 0.193564 1.429713 3.001603 -33.19418 1.374001 -0 13.64755 -0 -4.886121 0.7768968 -5.028879 -4.643769 16.00779 -11.25172 -0 11.61923 -0 -4.884153 -23.51414 11.49353 -2.099028 0.3284659 2.226378 3.152193 8.899439 -9.59013 0.804185 20.4036 7.992632 3.679068 -24.05505 8.267656 3.476457 -16.59993 11.13201 90.04852 30.02956 -24.29994 -0 0 9.520264 -17.11114 11.55566 9.8556 6.034616 -23.35262 -4.185427 -85.29224 27.41616 12.05001 0 0 -28.59091 -0.5330754 9.919961 15.46775
0.6123431 98.31986 23.85652 0.20579 -0.3885957 2.11141 1.928414 -32.7699 0.3291065 -0 7.944891 -0 -3.95069 3.067785 -6.1958 -5.022001 17.36713 -8.292929 -0 13.32101 -0 -4.571193 -23.23226 10.7913 -2.510977 0.15414 2.303913 3.108638 9.328615 -9.70824 0.9789857 20.17396 7.54319 3.170637 -23.19669 8.060225 2.489818 -15.8929 11.05278 91.49381 28.25304 -25.31212 -0 0 7.125536 -19.30896 12.23132 10.71949 6.193598 -24.40635 -4.546385 -82.15177 23.79381 7.782567 0 0 -31.26553 1.533261 7.968277 12.53105
0.613643 96.74134 30.66584 0.9105381 -0.9070621 2.865927 1.653807 -30.77803 0.4921942 -0 4.897 -0 -3.031421 3.611983 -7.508218 -5.273196 18.74286 -6.749942 -0 15.14714 -0 -4.321468 -22.01391 10.94782 -2.709492 -0.3898532 2.366832 2.897515 9.542209 -9.613102 1.191949 20.08914 7.014507 2.745998 -22.11201 7.814178 2.000004 -15.16264 10.92697 92.39224 27.35847 -25.94403 -0 0 5.490707 -20.22358 12.79859 10.86289 6.294964 -24.7512 -4.698046 -80.36522 21.58234 4.973061 0 0 -32.75005 2.710688 6.70769 10.68361
0.5895522 95.54143 37.80899 0.7994823 -0.9197935 3.501455 2.824989 -28.54504 1.963228 -0 6.287654 -0 -2.662922 2.29456 -8.330761 -4.819181 19.43871 -7.25208 -0 18.37796 -0 -5.006146 -19.42098 11.15679 -2.175296 -0.937857 2.247493 2.685939 9.407793 -9.406907 1.335401 20.02777 6.59454 2.631142 -21.42278 7.512454 2.483277 -14.53181 10.85081 92.08646 27.92444 -25.82306 -0 0 5.435101 -19.23464 13.18604 10.1928 6.265928 -24.00305 -4.470031 -80.48973 21.80747 4.886636 0 0 -31.82564 2.751287 6.701786 10.68355
0.5341928 95.08057 44.87261 -0.2780591 -0.5544798 3.783438 5.050147 -26.74689 3.74326 -0 10.97219 -0 -3.225556 0.09455663 -8.158579 -3.659661 18.51674 -8.970733 -0 25.45702 -0 -6.887174 -15.47248 10.71099 -0.9142706 -1.090824 2.037274 2.65594 9.109253 -9.257365 1.302081 20.02913 6.368256 2.888925 -21.42538 7.038896 3.876779 -14.09734 10.96867 90.69268 29.69965 -25.08666 -0 0 6.557077 -17.0886 13.33925 9.177722 5.927043 -22.58503 -4.02065 -82.35855 23.9397 7.438962 0 0 -28.76974 1.86234 7.851669 12.39362
0.4664415 95.46967 51.68259 -1.377306 -0.6861098 3.546117 6.903517 -24.13084 4.692502 -0 15.18746 -0 -4.269685 -1.723261 -7.280578 -2.705681 15.49654 -9.945498 -0 37.10165 -0 -8.783619 -11.04796 10.2133 0.2820052 -0.812483 2.214537 2.740495 9.142611 -9.10759 1.191501 20.30941 6.200092 3.235114 -21.59266 6.465119 5.286228 -13.96697 11.29526 89.30682 31.38194 -24.25874 -0 0 7.495554 -15.66817 13.37535 8.558485 5.170548 -21.4976 -3.76345 -84.74316 25.92827 10.70282 0 0 -25.46052 0.7447518 9.126075 14.48123
0.422999 96.52165 58.20305 -1.60305 -1.778311 2.796783 7.459675 -19.4433 4.768852 -0 16.69044 -0 -4.89616 -2.944016 -6.364598 -2.518287 10.58086 -9.494589 -0 49.75886 -0 -9.581431 -7.615257 10.56312 0.7109216 -0.2864542 3.105298 2.672867 9.660149 -8.634773 1.247187 20.90709 5.988328 3.397129 -21.28998 6.129784 5.9625 -14.20628 11.68792 88.40871 32.06269 -23.22103 -0 0 7.984456 -15.96499 13.63885 8.616727 4.270316 -21.02895 -3.805706 -86.55861 26.59528 13.12013 0 0 -23.01422 -0.01623214 9.781917 15.73411
0.400927 97.86809 64.36949 -1.078675 -3.293902 1.81869 7.044299 -13.31449 4.525371 -0 16.15501 -0 -4.911946 -4.245426 -5.620366 -2.650239 4.216577 -8.488368 -0 58.70103 -0 -9.599023 -5.961228 11.50284 0.4418933 0.383164 4.409979 2.318963 10.1897 -7.689324 1.498905 21.64233 5.774226 3.411848 -20.49375 6.108174 5.990349 -14.70752 12.02773 87.31254 32.02003 -21.30329 -0 0 8.878961 -17.32501 14.1754 9.103264 3.673953 -20.68008 -3.860565 -87.92808 26.482 14.86228 0 0 -21.169 -0.4886304 10.07591 16.20433
0.385493 99.0905 70.18231 -0.3316741 -4.640683 0.9005146 6.272393 -6.944043 4.246946 -0 14.83997 -0 -4.634718 -6.217508 -4.970981 -2.517113 -2.904663 -7.462529 -0 61.75573 -0 -9.444664 -5.695897 12.62208 -0.1081179 1.098741 5.637218 1.77091 10.32309 -6.4865 1.754002 22.34751 5.598511 3.36008 -19.45472 6.164666 5.619125 -15.37086 12.25246 85.67557 31.61642 -18.42133 -0 0 10.52387 -18.76327 14.46679 9.720372 3.534231 -20.13152 -3.731056 -89.11598 26.243 16.34745 0 0 -19.65555 -0.8595367 10.13307 16.33719
